<svg width="29" height="28" viewBox="0 0 29 28" fill="none" xmlns="http://www.w3.org/2000/svg">
<path d="M19.74 20.24H12.5L4.79999 27.94C5.01001 27.98 5.22998 28 5.45001 28H23.55C25.45 28 27 26.45 27 24.55V8.97998H23.76L19.74 13C20.29 13 20.74 13.45 20.74 14C20.74 14.55 20.29 15 19.74 15H17.74L14.5 18.24H19.74C20.29 18.24 20.74 18.69 20.74 19.24C20.74 19.79 20.29 20.24 19.74 20.24Z" fill="white"/>
<path d="M19.74 20.24H12.5L4.79999 27.94C5.01001 27.98 5.22998 28 5.45001 28H23.55C25.45 28 27 26.45 27 24.55V8.97998H23.76L19.74 13C20.29 13 20.74 13.45 20.74 14C20.74 14.55 20.29 15 19.74 15H17.74L14.5 18.24H19.74C20.29 18.24 20.74 18.69 20.74 19.24C20.74 19.79 20.29 20.24 19.74 20.24Z" fill="url(#paint0_linear_60_107)"/>
<path d="M26.793 0.292969L23.103 3.98297L21.63 2.63L19.36 0.549988V5.53998C19.36 6.12567 19.7181 6.633 20.229 6.85693L18.7844 8.30157C18.2323 7.89673 17.7957 7.34717 17.57 6.69C17.43 6.32996 17.36 5.94 17.36 5.53998V0H5.45001C3.54999 0 2 1.54999 2 3.45001V24.55C2 24.7156 2.03546 24.8695 2.05811 25.0278L0.792969 26.293C0.402344 26.6836 0.402344 27.3164 0.792969 27.707C0.988281 27.9023 1.24414 28 1.5 28C1.75586 28 2.01172 27.9023 2.20703 27.707L28.207 1.70703C28.5977 1.31641 28.5977 0.683594 28.207 0.292969C27.8164 -0.0976562 27.1836 -0.0976562 26.793 0.292969ZM11.43 15H9.26001C8.71002 15 8.26001 14.55 8.26001 14C8.26001 13.45 8.71002 13 9.26001 13H11.43C11.98 13 12.43 13.45 12.43 14C12.43 14.55 11.98 15 11.43 15ZM14.5 9.76001H9.26001C8.71002 9.76001 8.26001 9.31 8.26001 8.76001C8.26001 8.20996 8.71002 7.76001 9.26001 7.76001H14.5C15.05 7.76001 15.5 8.20996 15.5 8.76001C15.5 9.31 15.05 9.76001 14.5 9.76001Z" fill="white"/>
<path d="M26.793 0.292969L23.103 3.98297L21.63 2.63L19.36 0.549988V5.53998C19.36 6.12567 19.7181 6.633 20.229 6.85693L18.7844 8.30157C18.2323 7.89673 17.7957 7.34717 17.57 6.69C17.43 6.32996 17.36 5.94 17.36 5.53998V0H5.45001C3.54999 0 2 1.54999 2 3.45001V24.55C2 24.7156 2.03546 24.8695 2.05811 25.0278L0.792969 26.293C0.402344 26.6836 0.402344 27.3164 0.792969 27.707C0.988281 27.9023 1.24414 28 1.5 28C1.75586 28 2.01172 27.9023 2.20703 27.707L28.207 1.70703C28.5977 1.31641 28.5977 0.683594 28.207 0.292969C27.8164 -0.0976562 27.1836 -0.0976562 26.793 0.292969ZM11.43 15H9.26001C8.71002 15 8.26001 14.55 8.26001 14C8.26001 13.45 8.71002 13 9.26001 13H11.43C11.98 13 12.43 13.45 12.43 14C12.43 14.55 11.98 15 11.43 15ZM14.5 9.76001H9.26001C8.71002 9.76001 8.26001 9.31 8.26001 8.76001C8.26001 8.20996 8.71002 7.76001 9.26001 7.76001H14.5C15.05 7.76001 15.5 8.20996 15.5 8.76001C15.5 9.31 15.05 9.76001 14.5 9.76001Z" fill="url(#paint1_linear_60_107)"/>
<defs>
<linearGradient id="paint0_linear_60_107" x1="21.2379" y1="-0.187039" x2="6.28463" y2="30.5739" gradientUnits="userSpaceOnUse">
<stop stop-color="#C2C2C2"/>
<stop offset="1" stop-color="#A6A6A6"/>
</linearGradient>
<linearGradient id="paint1_linear_60_107" x1="21.2379" y1="-0.187039" x2="6.28463" y2="30.5739" gradientUnits="userSpaceOnUse">
<stop stop-color="#C2C2C2"/>
<stop offset="1" stop-color="#A6A6A6"/>
</linearGradient>
</defs>
</svg>
