<svg width="712" height="239" viewBox="0 0 712 239" fill="none" xmlns="http://www.w3.org/2000/svg">
<mask id="path-1-inside-1_900_110645" fill="white">
<path d="M711.5 -117C711.5 -70.3151 702.305 -24.0873 684.439 19.044C666.574 62.1752 640.388 101.365 607.376 134.376C574.365 167.388 535.175 193.574 492.044 211.439C448.913 229.305 402.685 238.5 356 238.5C309.315 238.5 263.087 229.305 219.956 211.439C176.825 193.574 137.635 167.388 104.624 134.376C71.6123 101.365 45.4264 62.1752 27.5608 19.0439C9.69527 -24.0873 0.499996 -70.3151 0.5 -117L207.415 -117C207.415 -97.4875 211.258 -78.1661 218.725 -60.1389C226.192 -42.1118 237.137 -25.7318 250.934 -11.9344C264.732 1.86298 281.112 12.8077 299.139 20.2748C317.166 27.7419 336.488 31.5851 356 31.5851C375.512 31.5852 394.834 27.7419 412.861 20.2748C430.888 12.8077 447.268 1.86298 461.066 -11.9344C474.863 -25.7318 485.808 -42.1117 493.275 -60.1389C500.742 -78.1661 504.585 -97.4875 504.585 -117H711.5Z"/>
</mask>
<path d="M711.5 -117C711.5 -70.3151 702.305 -24.0873 684.439 19.044C666.574 62.1752 640.388 101.365 607.376 134.376C574.365 167.388 535.175 193.574 492.044 211.439C448.913 229.305 402.685 238.5 356 238.5C309.315 238.5 263.087 229.305 219.956 211.439C176.825 193.574 137.635 167.388 104.624 134.376C71.6123 101.365 45.4264 62.1752 27.5608 19.0439C9.69527 -24.0873 0.499996 -70.3151 0.5 -117L207.415 -117C207.415 -97.4875 211.258 -78.1661 218.725 -60.1389C226.192 -42.1118 237.137 -25.7318 250.934 -11.9344C264.732 1.86298 281.112 12.8077 299.139 20.2748C317.166 27.7419 336.488 31.5851 356 31.5851C375.512 31.5852 394.834 27.7419 412.861 20.2748C430.888 12.8077 447.268 1.86298 461.066 -11.9344C474.863 -25.7318 485.808 -42.1117 493.275 -60.1389C500.742 -78.1661 504.585 -97.4875 504.585 -117H711.5Z" fill="url(#paint0_linear_900_110645)" fill-opacity="0.36" stroke="url(#paint1_linear_900_110645)" stroke-opacity="0.2" stroke-width="6" mask="url(#path-1-inside-1_900_110645)"/>
<defs>
<linearGradient id="paint0_linear_900_110645" x1="255.359" y1="-230.5" x2="124.557" y2="195.568" gradientUnits="userSpaceOnUse">
<stop stop-color="#11C397" stop-opacity="0.27"/>
<stop offset="1" stop-color="#999999" stop-opacity="0"/>
</linearGradient>
<linearGradient id="paint1_linear_900_110645" x1="685.787" y1="3.0809" x2="195.408" y2="-296.793" gradientUnits="userSpaceOnUse">
<stop stop-color="#003528"/>
<stop offset="0.317853" stop-color="#026B51"/>
<stop offset="1" stop-color="#003528"/>
</linearGradient>
</defs>
</svg>
