<svg width="339" height="94" viewBox="0 0 339 94" fill="none" xmlns="http://www.w3.org/2000/svg">
<path d="M0 15.832L31.1688 47.0009L0 78.1697V15.832Z" fill="#EAFBE7"/>
<path d="M31.1641 15.832H62.3329L31.1641 47.0009V15.832Z" fill="#B2F377"/>
<path d="M31.1641 47L62.3329 78.1688H31.1641V47Z" fill="#00C97E"/>
<path d="M321.531 41.5273C325.417 41.5273 328.541 42.7273 330.903 45.1273C333.303 47.4893 334.503 50.8035 334.503 55.0702V73.6416H326.503V56.1559C326.503 53.6797 325.874 51.794 324.617 50.4988C323.36 49.1654 321.645 48.4988 319.474 48.4988C317.302 48.4988 315.569 49.1654 314.274 50.4988C313.017 51.794 312.388 53.6797 312.388 56.1559V73.6416H304.388V56.1559C304.388 53.6797 303.76 51.794 302.502 50.4988C301.245 49.1654 299.531 48.4988 297.36 48.4988C295.15 48.4988 293.398 49.1654 292.102 50.4988C290.845 51.794 290.217 53.6797 290.217 56.1559V73.6416H282.217V41.9845H290.217V45.8131C291.245 44.4797 292.56 43.4321 294.16 42.6702C295.798 41.9083 297.588 41.5273 299.531 41.5273C302.007 41.5273 304.217 42.0607 306.16 43.1273C308.103 44.1559 309.607 45.6416 310.674 47.5845C311.702 45.7559 313.188 44.2892 315.131 43.1845C317.112 42.0797 319.245 41.5273 321.531 41.5273Z" fill="#2D2D2D"/>
<path d="M241.426 57.7051C241.426 54.5051 242.054 51.667 243.312 49.1908C244.607 46.7147 246.34 44.8099 248.512 43.4766C250.721 42.1432 253.178 41.4766 255.883 41.4766C258.245 41.4766 260.302 41.9528 262.054 42.9051C263.845 43.8575 265.273 45.0575 266.34 46.5051V41.9908H274.397V73.648H266.34V69.0194C265.311 70.5051 263.883 71.7432 262.054 72.7337C260.264 73.6861 258.188 74.1623 255.826 74.1623C253.159 74.1623 250.721 73.4766 248.512 72.1051C246.34 70.7337 244.607 68.8099 243.312 66.3337C242.054 63.8194 241.426 60.9432 241.426 57.7051ZM266.34 57.8194C266.34 55.8766 265.959 54.2194 265.197 52.848C264.435 51.4385 263.407 50.3718 262.112 49.648C260.816 48.8861 259.426 48.5051 257.94 48.5051C256.454 48.5051 255.083 48.867 253.826 49.5908C252.569 50.3147 251.54 51.3813 250.74 52.7908C249.978 54.1623 249.597 55.8004 249.597 57.7051C249.597 59.6099 249.978 61.2861 250.74 62.7337C251.54 64.1432 252.569 65.2289 253.826 65.9908C255.121 66.7528 256.492 67.1337 257.94 67.1337C259.426 67.1337 260.816 66.7718 262.112 66.048C263.407 65.2861 264.435 64.2194 265.197 62.848C265.959 61.4385 266.34 59.7623 266.34 57.8194Z" fill="#2D2D2D"/>
<path d="M228.381 46.8988C229.409 45.2226 230.743 43.9083 232.381 42.9559C234.057 42.0035 235.962 41.5273 238.095 41.5273V49.9273H235.981C233.467 49.9273 231.562 50.5178 230.267 51.6988C229.009 52.8797 228.381 54.9369 228.381 57.8702V73.6416H220.381V41.9845H228.381V46.8988Z" fill="#2D2D2D"/>
<path d="M194.057 41.4766C196.419 41.4766 198.495 41.9528 200.285 42.9051C202.076 43.8194 203.485 45.0194 204.514 46.5051V41.9908H212.571V73.8766C212.571 76.8099 211.981 79.4194 210.8 81.7051C209.619 84.0289 207.847 85.8575 205.485 87.1908C203.123 88.5623 200.266 89.248 196.914 89.248C192.419 89.248 188.723 88.2004 185.828 86.1051C182.971 84.0099 181.352 81.1528 180.971 77.5337H188.914C189.333 78.9813 190.228 80.1242 191.6 80.9623C193.009 81.8385 194.704 82.2766 196.685 82.2766C199.009 82.2766 200.895 81.5718 202.342 80.1623C203.79 78.7908 204.514 76.6956 204.514 73.8766V68.9623C203.485 70.448 202.057 71.6861 200.228 72.6766C198.438 73.667 196.381 74.1623 194.057 74.1623C191.39 74.1623 188.952 73.4766 186.742 72.1051C184.533 70.7337 182.781 68.8099 181.485 66.3337C180.228 63.8194 179.6 60.9432 179.6 57.7051C179.6 54.5051 180.228 51.667 181.485 49.1908C182.781 46.7147 184.514 44.8099 186.685 43.4766C188.895 42.1432 191.352 41.4766 194.057 41.4766ZM204.514 57.8194C204.514 55.8766 204.133 54.2194 203.371 52.848C202.609 51.4385 201.581 50.3718 200.285 49.648C198.99 48.8861 197.6 48.5051 196.114 48.5051C194.628 48.5051 193.257 48.867 192 49.5908C190.742 50.3147 189.714 51.3813 188.914 52.7908C188.152 54.1623 187.771 55.8004 187.771 57.7051C187.771 59.6099 188.152 61.2861 188.914 62.7337C189.714 64.1432 190.742 65.2289 192 65.9908C193.295 66.7528 194.666 67.1337 196.114 67.1337C197.6 67.1337 198.99 66.7718 200.285 66.048C201.581 65.2861 202.609 64.2194 203.371 62.848C204.133 61.4385 204.514 59.7623 204.514 57.8194Z" fill="#2D2D2D"/>
<path d="M173.807 46.418V78.0751H165.807V46.418H173.807Z" fill="#2D2D2D"/>
<path d="M135.023 46.5623C136.052 45.1147 137.462 43.9147 139.252 42.9623C141.081 41.9718 143.157 41.4766 145.481 41.4766C148.185 41.4766 150.623 42.1432 152.795 43.4766C155.004 44.8099 156.738 46.7147 157.995 49.1908C159.29 51.6289 159.938 54.467 159.938 57.7051C159.938 60.9432 159.29 63.8194 157.995 66.3337C156.738 68.8099 155.004 70.7337 152.795 72.1051C150.623 73.4766 148.185 74.1623 145.481 74.1623C143.157 74.1623 141.1 73.6861 139.309 72.7337C137.557 71.7813 136.128 70.5813 135.023 69.1337V88.7337H127.023V41.9908H135.023V46.5623ZM151.766 57.7051C151.766 55.8004 151.366 54.1623 150.566 52.7908C149.804 51.3813 148.776 50.3147 147.481 49.5908C146.223 48.867 144.852 48.5051 143.366 48.5051C141.919 48.5051 140.547 48.8861 139.252 49.648C137.995 50.3718 136.966 51.4385 136.166 52.848C135.404 54.2575 135.023 55.9147 135.023 57.8194C135.023 59.7242 135.404 61.3813 136.166 62.7908C136.966 64.2004 137.995 65.2861 139.252 66.048C140.547 66.7718 141.919 67.1337 143.366 67.1337C144.852 67.1337 146.223 66.7528 147.481 65.9908C148.776 65.2289 149.804 64.1432 150.566 62.7337C151.366 61.3242 151.766 59.648 151.766 57.7051Z" fill="#2D2D2D"/>
<path d="M95.0605 33.7617V58.4474C95.0605 61.1522 95.7653 63.2284 97.1748 64.676C98.5844 66.0855 100.565 66.7903 103.118 66.7903C105.708 66.7903 107.708 66.0855 109.118 64.676C110.527 63.2284 111.232 61.1522 111.232 58.4474V33.7617H119.289V58.3903C119.289 61.7808 118.546 64.657 117.061 67.0189C115.613 69.3427 113.651 71.0951 111.175 72.276C108.737 73.457 106.013 74.0474 103.003 74.0474C100.032 74.0474 97.3272 73.457 94.8891 72.276C92.4891 71.0951 90.5844 69.3427 89.1748 67.0189C87.7653 64.657 87.0605 61.7808 87.0605 58.3903V33.7617H95.0605Z" fill="#2D2D2D"/>
<path d="M177.922 30.5741L169.168 21.8203L160.414 30.5741L169.168 39.328L177.922 30.5741Z" fill="#00C97E"/>
</svg>
