<svg width="226" height="44" viewBox="0 0 226 44" fill="none" xmlns="http://www.w3.org/2000/svg">
<path d="M0.5 3.06421L17.9359 20.5001L0.5 37.936V3.06421Z" fill="#EAFBE7"/>
<path d="M17.9375 3.06421H35.3734L17.9375 20.5001V3.06421Z" fill="#B2F377"/>
<path d="M17.9375 20.4978L35.3734 37.9337H17.9375V20.4978Z" fill="#00C97E"/>
<path d="M52.3357 12.8441V26.6533C52.3357 28.1664 52.7299 29.3278 53.5184 30.1376C54.3069 30.9261 55.415 31.3204 56.8429 31.3204C58.292 31.3204 59.4108 30.9261 60.1993 30.1376C60.9878 29.3278 61.382 28.1664 61.382 26.6533V12.8441H65.8892V26.6214C65.8892 28.518 65.4736 30.127 64.6425 31.4482C63.8327 32.7482 62.7352 33.7284 61.35 34.3891C59.9862 35.0497 58.4625 35.38 56.7789 35.38C55.1167 35.38 53.6037 35.0497 52.2398 34.3891C50.8972 33.7284 49.8317 32.7482 49.0432 31.4482C48.2547 30.127 47.8605 28.518 47.8605 26.6214V12.8441H52.3357ZM74.6883 20.0045C75.2637 19.1947 76.0521 18.5234 77.0537 17.9906C78.0766 17.4365 79.2381 17.1595 80.538 17.1595C82.0511 17.1595 83.4149 17.5324 84.6296 18.2783C85.8656 19.0242 86.8353 20.0897 87.5385 21.4749C88.2631 22.8388 88.6254 24.4264 88.6254 26.2378C88.6254 28.0492 88.2631 29.6581 87.5385 31.0646C86.8353 32.4498 85.8656 33.526 84.6296 34.2932C83.4149 35.0604 82.0511 35.4439 80.538 35.4439C79.2381 35.4439 78.0873 35.1776 77.0857 34.6448C76.1054 34.112 75.3063 33.4408 74.6883 32.631V43.5952H70.2131V17.4472H74.6883V20.0045ZM84.0543 26.2378C84.0543 25.1723 83.8305 24.2559 83.383 23.4887C82.9568 22.7002 82.3814 22.1035 81.6568 21.6986C80.9536 21.2937 80.1864 21.0913 79.3553 21.0913C78.5455 21.0913 77.7783 21.3044 77.0537 21.7306C76.3505 22.1355 75.7751 22.7322 75.3276 23.5207C74.9014 24.3092 74.6883 25.2362 74.6883 26.3017C74.6883 27.3672 74.9014 28.2943 75.3276 29.0827C75.7751 29.8712 76.3505 30.4786 77.0537 30.9048C77.7783 31.3097 78.5455 31.5121 79.3553 31.5121C80.1864 31.5121 80.9536 31.299 81.6568 30.8728C82.3814 30.4466 82.9568 29.8393 83.383 29.0508C83.8305 28.2623 84.0543 27.3246 84.0543 26.2378ZM94.147 15.3374C93.3585 15.3374 92.6978 15.0924 92.1651 14.6022C91.6536 14.0908 91.3979 13.4621 91.3979 12.7163C91.3979 11.9704 91.6536 11.3524 92.1651 10.8622C92.6978 10.3508 93.3585 10.0951 94.147 10.0951C94.9354 10.0951 95.5854 10.3508 96.0969 10.8622C96.6296 11.3524 96.896 11.9704 96.896 12.7163C96.896 13.4621 96.6296 14.0908 96.0969 14.6022C95.5854 15.0924 94.9354 15.3374 94.147 15.3374ZM96.3526 17.4472V35.1562H91.8774V17.4472H96.3526ZM107.711 17.1595C109.032 17.1595 110.193 17.4259 111.195 17.9586C112.197 18.4701 112.985 19.1414 113.56 19.9725V17.4472H118.068V35.2841C118.068 36.925 117.737 38.3848 117.077 39.6634C116.416 40.9634 115.425 41.9863 114.104 42.7321C112.783 43.4993 111.184 43.8829 109.309 43.8829C106.794 43.8829 104.727 43.2969 103.108 42.1248C101.509 40.9527 100.604 39.3544 100.391 37.3299H104.834C105.068 38.1397 105.569 38.779 106.336 39.2479C107.125 39.738 108.073 39.9831 109.181 39.9831C110.481 39.9831 111.536 39.5888 112.346 38.8004C113.156 38.0332 113.56 36.8611 113.56 35.2841V32.5351C112.985 33.3662 112.186 34.0588 111.163 34.6128C110.161 35.1669 109.011 35.4439 107.711 35.4439C106.219 35.4439 104.855 35.0604 103.619 34.2932C102.383 33.526 101.403 32.4498 100.678 31.0646C99.975 29.6581 99.6233 28.0492 99.6233 26.2378C99.6233 24.4477 99.975 22.8601 100.678 21.4749C101.403 20.0897 102.372 19.0242 103.587 18.2783C104.823 17.5324 106.198 17.1595 107.711 17.1595ZM113.56 26.3017C113.56 25.2149 113.347 24.2879 112.921 23.5207C112.495 22.7322 111.92 22.1355 111.195 21.7306C110.47 21.3044 109.693 21.0913 108.861 21.0913C108.03 21.0913 107.263 21.2937 106.56 21.6986C105.857 22.1035 105.281 22.7002 104.834 23.4887C104.408 24.2559 104.194 25.1723 104.194 26.2378C104.194 27.3033 104.408 28.241 104.834 29.0508C105.281 29.8393 105.857 30.4466 106.56 30.8728C107.284 31.299 108.052 31.5121 108.861 31.5121C109.693 31.5121 110.47 31.3097 111.195 30.9048C111.92 30.4786 112.495 29.8819 112.921 29.1147C113.347 28.3262 113.56 27.3886 113.56 26.3017ZM126.914 20.1962C127.489 19.2586 128.235 18.5234 129.151 17.9906C130.089 17.4578 131.154 17.1915 132.348 17.1915V21.8904H131.165C129.759 21.8904 128.693 22.2208 127.969 22.8814C127.265 23.542 126.914 24.6928 126.914 26.3337V35.1562H122.438V17.4472H126.914V20.1962ZM134.211 26.2378C134.211 24.4477 134.563 22.8601 135.266 21.4749C135.991 20.0897 136.96 19.0242 138.175 18.2783C139.411 17.5324 140.786 17.1595 142.299 17.1595C143.62 17.1595 144.771 17.4259 145.751 17.9586C146.753 18.4914 147.552 19.1627 148.148 19.9725V17.4472H152.656V35.1562H148.148V32.567C147.573 33.3981 146.774 34.0907 145.751 34.6448C144.749 35.1776 143.588 35.4439 142.267 35.4439C140.775 35.4439 139.411 35.0604 138.175 34.2932C136.96 33.526 135.991 32.4498 135.266 31.0646C134.563 29.6581 134.211 28.0492 134.211 26.2378ZM148.148 26.3017C148.148 25.2149 147.935 24.2879 147.509 23.5207C147.083 22.7322 146.508 22.1355 145.783 21.7306C145.058 21.3044 144.281 21.0913 143.449 21.0913C142.618 21.0913 141.851 21.2937 141.148 21.6986C140.445 22.1035 139.869 22.7002 139.422 23.4887C138.996 24.2559 138.782 25.1723 138.782 26.2378C138.782 27.3033 138.996 28.241 139.422 29.0508C139.869 29.8393 140.445 30.4466 141.148 30.8728C141.872 31.299 142.64 31.5121 143.449 31.5121C144.281 31.5121 145.058 31.3097 145.783 30.9048C146.508 30.4786 147.083 29.8819 147.509 29.1147C147.935 28.3262 148.148 27.3886 148.148 26.3017ZM179.019 17.1915C181.193 17.1915 182.94 17.8627 184.261 19.2053C185.604 20.5266 186.275 22.3806 186.275 24.7674V35.1562H181.8V25.3747C181.8 23.9895 181.448 22.9347 180.745 22.2101C180.042 21.4642 179.083 21.0913 177.868 21.0913C176.653 21.0913 175.684 21.4642 174.959 22.2101C174.256 22.9347 173.904 23.9895 173.904 25.3747V35.1562H169.429V25.3747C169.429 23.9895 169.078 22.9347 168.374 22.2101C167.671 21.4642 166.712 21.0913 165.497 21.0913C164.261 21.0913 163.281 21.4642 162.557 22.2101C161.853 22.9347 161.502 23.9895 161.502 25.3747V35.1562H157.026V17.4472H161.502V19.5889C162.077 18.843 162.812 18.257 163.707 17.8308C164.624 17.4046 165.625 17.1915 166.712 17.1915C168.097 17.1915 169.333 17.4898 170.42 18.0865C171.507 18.6619 172.349 19.493 172.945 20.5798C173.521 19.5569 174.352 18.7365 175.439 18.1185C176.547 17.5005 177.74 17.1915 179.019 17.1915Z" fill="white"/>
<path d="M98.97 11.5493L93.9844 6.65234L88.9988 11.5493L93.9844 16.4462L98.97 11.5493Z" fill="#00C97E"/>
</svg>
